<svg width="32" height="20" viewBox="0 0 32 20" fill="none" xmlns="http://www.w3.org/2000/svg">
<path d="M2.13169 18.9862L0 0.756561H4.63091L5.51298 13.8775L11.5038 0.756561H16.7227L18.0826 13.9142L23.5956 0.756561H28.2265L19.6997 18.9862H14.8116L13.3047 5.35071L7.01987 18.9862H2.13169Z" fill="#EE0F0F"/>
<path d="M29.0965 19.2434C28.2144 19.2434 27.5039 18.9739 26.9648 18.4349C26.4258 17.8958 26.1562 17.2465 26.1562 16.4869C26.1562 15.7029 26.4258 15.0413 26.9648 14.5023C27.5039 13.9632 28.2144 13.6937 29.0965 13.6937C29.9541 13.6937 30.6524 13.9632 31.1914 14.5023C31.7305 15.0413 32 15.7029 32 16.4869C32 17.2465 31.7305 17.8958 31.1914 18.4349C30.6524 18.9739 29.9541 19.2434 29.0965 19.2434Z" fill="#EE0F0F"/>
</svg>
